<svg xmlns="http://www.w3.org/2000/svg" xml:space="preserve" id="commentator" x="0" y="0" enable-background="new 0 0 64 64" version="1.1" viewBox="0 0 64 64">
  <g>
    <g>
      <g>
        <path d="M57.84,48.33h-54c-0.6,0-1.08-0.49-1.08-1.08v-3.7c0-0.6,0.49-1.08,1.08-1.08h54c0.6,0,1.08,0.49,1.08,1.08v3.7
				C58.92,47.84,58.43,48.33,57.84,48.33z M3.84,43.37c-0.1,0-0.18,0.08-0.18,0.18v3.7c0,0.1,0.08,0.18,0.18,0.18h54
				c0.1,0,0.18-0.08,0.18-0.18v-3.7c0-0.1-0.08-0.18-0.18-0.18H3.84z"></path>
      </g>
      <g>
        <path d="M54.43,60.46H7.25c-0.88,0-1.59-0.71-1.59-1.59V47.88c0-0.25,0.2-0.45,0.45-0.45s0.45,0.2,0.45,0.45v10.99
				c0,0.38,0.31,0.69,0.69,0.69h47.17c0.38,0,0.69-0.31,0.69-0.69V47.88c0-0.25,0.2-0.45,0.45-0.45c0.25,0,0.45,0.2,0.45,0.45v10.99
				C56.02,59.74,55.3,60.46,54.43,60.46z"></path>
      </g>
      <g>
        <path d="M51.63,56.62H10.05c-0.25,0-0.45-0.2-0.45-0.45v-4.53c0-0.25,0.2-0.45,0.45-0.45h41.58c0.25,0,0.45,0.2,0.45,0.45v4.53
				C52.08,56.41,51.88,56.62,51.63,56.62z M10.5,55.72h40.68v-3.63H10.5V55.72z"></path>
      </g>
      <g>
        <path d="M60.53,39.2h-7.52c-0.25,0-0.45-0.2-0.45-0.45c0-0.25,0.2-0.45,0.45-0.45h7.32V26.92H40.3V38.3h7.33
				c0.25,0,0.45,0.2,0.45,0.45c0,0.25-0.2,0.45-0.45,0.45h-7.52c-0.4,0-0.72-0.32-0.72-0.71V26.73c0-0.39,0.32-0.71,0.72-0.71h20.41
				c0.39,0,0.71,0.32,0.71,0.71v11.76C61.24,38.88,60.92,39.2,60.53,39.2z"></path>
      </g>
      <g>
        <path d="M53.02,43.37c-0.25,0-0.45-0.2-0.45-0.45v-8.98c0-0.18-0.14-0.32-0.32-0.32h-3.83c-0.18,0-0.32,0.14-0.32,0.32v8.98
				c0,0.25-0.2,0.45-0.45,0.45s-0.45-0.2-0.45-0.45v-8.98c0-0.67,0.55-1.22,1.22-1.22h3.83c0.67,0,1.22,0.55,1.22,1.22v8.98
				C53.46,43.16,53.26,43.37,53.02,43.37z"></path>
      </g>
      <g>
        <path d="M15.97,64H9.08c-0.25,0-0.45-0.2-0.45-0.45v-3.54c0-0.25,0.2-0.45,0.45-0.45c0.25,0,0.45,0.2,0.45,0.45v3.09h5.98v-3.09
				c0-0.25,0.2-0.45,0.45-0.45c0.25,0,0.45,0.2,0.45,0.45v3.54C16.42,63.8,16.21,64,15.97,64z"></path>
      </g>
      <g>
        <path d="M52.6,64h-6.88c-0.25,0-0.45-0.2-0.45-0.45v-3.54c0-0.25,0.2-0.45,0.45-0.45c0.25,0,0.45,0.2,0.45,0.45v3.09h5.98v-3.09
				c0-0.25,0.2-0.45,0.45-0.45s0.45,0.2,0.45,0.45v3.54C53.05,63.8,52.85,64,52.6,64z"></path>
      </g>
    </g>
    <g>
      <g>
        <path d="M19.19,27.14c-2,0-3.88-0.78-5.28-2.19c-1.41-1.4-2.19-3.27-2.19-5.27V13.9c0-0.25,0.2-0.45,0.45-0.45
				s0.45,0.2,0.45,0.45v5.77c0,1.76,0.68,3.41,1.92,4.64c1.23,1.24,2.88,1.92,4.64,1.92c3.61,0,6.55-2.94,6.55-6.56v-3.55
				c0-0.25,0.2-0.45,0.45-0.45s0.45,0.2,0.45,0.45v3.55C26.64,23.79,23.3,27.14,19.19,27.14z"></path>
      </g>
      <g>
        <path d="M25.64,16.81c-0.15,0-0.3-0.03-0.45-0.09c-1.73-0.69-2.82-1.81-3.24-3.34c-2.84,2.23-9.47,1.74-12.39-0.3
				c-0.8-0.56-1.28-1.49-1.26-2.43c0-0.19,0.02-0.77,0.48-1.09C9.03,9.38,9.36,9.32,9.8,9.37c-0.53-0.76-1-1.8-0.62-2.79
				c0.17-0.43,0.63-0.66,1.07-0.52l2.33,0.74c0.54,0.17,1.09,0.26,1.65,0.26h9.11c0.72,0,1.41,0.26,1.94,0.74
				c0.43,0.39,0.98,0.99,0.98,1.81c1.79,2.54,1.33,5.56,0.29,6.79C26.33,16.66,25.99,16.81,25.64,16.81z M22.05,12.33
				c0.07,0,0.14,0.01,0.22,0.03c0.25,0.08,0.44,0.29,0.5,0.56c0.3,1.38,1.2,2.34,2.76,2.96c0.12,0.05,0.27,0.02,0.34-0.07
				c0.84-1,1.17-3.64-0.43-5.81c-0.07-0.09-0.1-0.2-0.09-0.31c0.04-0.4-0.16-0.77-0.68-1.24c-0.36-0.33-0.83-0.51-1.33-0.51h-9.11
				c-0.65,0-1.3-0.1-1.92-0.3L9.98,6.91c-0.36,1.04,0.9,2.46,1.42,2.92c0.16,0.14,0.2,0.38,0.09,0.57c-0.11,0.19-0.33,0.27-0.54,0.2
				c-1.28-0.45-1.6-0.34-1.66-0.3c-0.05,0.04-0.09,0.17-0.09,0.37c-0.01,0.64,0.32,1.29,0.88,1.68c2.67,1.87,9.19,2.29,11.51,0.18
				C21.72,12.4,21.88,12.33,22.05,12.33z"></path>
      </g>
      <g>
        <path d="M12.18,20.21h-0.47c-0.83,0-1.61-0.32-2.21-0.91c-0.59-0.61-0.92-1.39-0.92-2.22c0-1.72,1.4-3.13,3.13-3.13h0.47
				c0.25,0,0.45,0.2,0.45,0.45c0,0.25-0.2,0.45-0.45,0.45h-0.47c-1.23,0-2.23,1-2.23,2.23c0,0.59,0.23,1.15,0.65,1.58
				c0.42,0.41,0.98,0.65,1.57,0.65h0.47c0.25,0,0.45,0.2,0.45,0.45C12.63,20.01,12.43,20.21,12.18,20.21z"></path>
      </g>
      <g>
        <path d="M26.67,20.21h-0.48c-0.25,0-0.45-0.2-0.45-0.45c0-0.25,0.2-0.45,0.45-0.45h0.48c0.59,0,1.15-0.23,1.58-0.65
				c0.41-0.42,0.65-0.98,0.65-1.57c0-1.16-0.86-2.11-2.01-2.22c-0.25-0.02-0.43-0.24-0.41-0.49c0.02-0.25,0.26-0.43,0.49-0.41
				c1.61,0.15,2.83,1.49,2.83,3.11c0,0.83-0.32,1.61-0.91,2.21C28.28,19.89,27.5,20.21,26.67,20.21z"></path>
      </g>
      <g>
        <path d="M15.32,28.93c-0.25,0-0.45-0.2-0.45-0.45v-2.96c0-0.25,0.2-0.45,0.45-0.45c0.25,0,0.45,0.2,0.45,0.45v2.96
				C15.77,28.73,15.57,28.93,15.32,28.93z"></path>
      </g>
      <g>
        <path d="M23.07,28.94c-0.25,0-0.45-0.2-0.45-0.45v-2.98c0-0.25,0.2-0.45,0.45-0.45c0.25,0,0.45,0.2,0.45,0.45v2.98
				C23.52,28.74,23.32,28.94,23.07,28.94z"></path>
      </g>
      <g>
        <path d="M5.71,43.37c-0.25,0-0.45-0.2-0.45-0.45v-6.08c0-2.91,1.82-5.58,4.53-6.65l5.36-2.11c0.14-0.05,0.29-0.04,0.41,0.04
				l3.87,2.55c0.21,0.14,0.27,0.42,0.13,0.62c-0.14,0.21-0.42,0.26-0.62,0.13l-3.67-2.42l-5.15,2.03c-2.37,0.93-3.96,3.27-3.96,5.82
				v6.08C6.16,43.16,5.95,43.37,5.71,43.37z"></path>
      </g>
      <g>
        <path d="M15.46,33.99c-0.11,0-0.22-0.04-0.31-0.12l-3.79-3.61c-0.18-0.17-0.19-0.46-0.02-0.64c0.17-0.18,0.46-0.19,0.64-0.02
				l3.53,3.36l3.42-2.3c0.28-0.19,0.71,0.04,0.71,0.37c0,0.18-0.1,0.34-0.26,0.41l-3.67,2.47C15.63,33.96,15.54,33.99,15.46,33.99z"></path>
      </g>
      <g>
        <path d="M32.67,43.37c-0.25,0-0.45-0.2-0.45-0.45v-6.08c0-2.54-1.59-4.88-3.96-5.82L23.12,29l-3.68,2.41
				c-0.21,0.14-0.49,0.08-0.62-0.13c-0.14-0.21-0.08-0.49,0.13-0.62l3.87-2.54c0.12-0.08,0.29-0.1,0.42-0.04l5.35,2.1
				c2.71,1.07,4.53,3.74,4.53,6.65v6.08C33.12,43.16,32.92,43.37,32.67,43.37z"></path>
      </g>
      <g>
        <path d="M22.92,33.99c-0.09,0-0.17-0.03-0.25-0.08l-3.7-2.49c-0.13-0.08-0.23-0.22-0.23-0.39c0-0.25,0.2-0.45,0.44-0.45h0.01
				c0.09,0,0.18,0.03,0.25,0.08l3.43,2.3l3.53-3.36c0.18-0.17,0.46-0.16,0.64,0.02c0.17,0.18,0.16,0.46-0.02,0.64l-3.79,3.61
				C23.14,33.94,23.03,33.99,22.92,33.99z"></path>
      </g>
      <g>
        <path d="M16.16,43.37c-0.04,0-0.08-0.01-0.12-0.02c-0.24-0.07-0.38-0.32-0.31-0.56l2.08-7.21l-1.48-2.69
				c-0.12-0.22-0.04-0.49,0.18-0.61c0.22-0.12,0.49-0.04,0.61,0.18l1.57,2.85c0.06,0.1,0.07,0.23,0.04,0.34l-2.13,7.39
				C16.54,43.24,16.36,43.37,16.16,43.37z"></path>
      </g>
      <g>
        <path d="M22.21,43.37c-0.2,0-0.38-0.13-0.43-0.33l-2.13-7.39c-0.03-0.11-0.02-0.24,0.04-0.34l1.56-2.85
				c0.12-0.22,0.39-0.3,0.61-0.18c0.22,0.12,0.3,0.39,0.18,0.61l-1.47,2.69l2.08,7.21c0.07,0.24-0.07,0.49-0.31,0.56
				C22.29,43.36,22.25,43.37,22.21,43.37z"></path>
      </g>
      <g>
        <path d="M20.07,35.98h-1.78c-0.25,0-0.45-0.2-0.45-0.45s0.2-0.45,0.45-0.45h1.78c0.25,0,0.45,0.2,0.45,0.45
				S20.32,35.98,20.07,35.98z"></path>
      </g>
    </g>
    <g>
      <path d="M36.09,17.83c-0.07,0-0.14-0.02-0.21-0.05c-0.15-0.08-0.24-0.23-0.24-0.4V2.66C35.64,1.2,36.83,0,38.3,0h18.67
			c1.47,0,2.66,1.2,2.66,2.66v8.87c0,0.72-0.28,1.39-0.79,1.89c-0.51,0.51-1.18,0.77-1.9,0.77L41.6,14.02l-5.26,3.72
			C36.27,17.8,36.18,17.83,36.09,17.83z M38.3,0.9c-0.97,0-1.77,0.79-1.77,1.77v13.84l4.67-3.3c0.08-0.05,0.17-0.08,0.27-0.08
			l15.48,0.17c0.01,0,0.01,0,0.02,0c0.47,0,0.91-0.18,1.24-0.51c0.34-0.33,0.52-0.78,0.52-1.26V2.66c0-0.97-0.79-1.77-1.77-1.77
			H38.3z"></path>
    </g>
    <g>
      <path d="M55.08,5.36H40.35c-0.25,0-0.45-0.2-0.45-0.45s0.2-0.45,0.45-0.45h14.74c0.25,0,0.45,0.2,0.45,0.45S55.33,5.36,55.08,5.36
			z"></path>
    </g>
    <g>
      <path d="M49.55,9.68h-9.2c-0.25,0-0.45-0.2-0.45-0.45c0-0.25,0.2-0.45,0.45-0.45h9.2c0.25,0,0.45,0.2,0.45,0.45
			C50,9.48,49.8,9.68,49.55,9.68z"></path>
    </g>
  </g>
</svg>
