<svg xmlns="http://www.w3.org/2000/svg" enable-background="new 0 0 64 64" viewBox="0 0 64 64" id="business-accounting">
  <g>
    <g>
      <path d="M16.5,22.45c-0.27,0-0.49-0.22-0.49-0.49V5.55c0-2.81,2.29-5.1,5.1-5.1h30.26c0.27,0,0.5,0.22,0.5,0.49
			s-0.22,0.49-0.49,0.49H21.1c-2.27,0-4.11,1.84-4.11,4.11v16.41C16.99,22.23,16.77,22.45,16.5,22.45z"></path>
    </g>
    <g>
      <path d="M18.49,59.68c-0.13,0-0.27-0.06-0.36-0.15c-0.19-0.19-0.19-0.5,0-0.7c0.1-0.1,0.23-0.13,0.36-0.14
			c0.13,0,0.25,0.04,0.35,0.14c0.2,0.19,0.21,0.5,0.02,0.7C18.76,59.62,18.63,59.68,18.49,59.68
			C18.49,59.68,18.49,59.68,18.49,59.68z"></path>
    </g>
    <g>
      <path d="M58.9,60.5H32.5C32.22,60.5,32,60.28,32,60c0-0.27,0.22-0.49,0.49-0.49H58.9c2.27,0,4.11-1.84,4.11-4.11V13.24
			c0-0.27,0.22-0.5,0.49-0.5c0.27,0,0.49,0.22,0.49,0.49V55.4C64,58.21,61.71,60.5,58.9,60.5z"></path>
    </g>
    <g>
      <path d="M63.51,13.73H53.08c-1.22,0-2.21-0.99-2.21-2.21V0.95c0-0.2,0.12-0.38,0.31-0.46c0.18-0.08,0.4-0.03,0.54,0.11
			l12.15,12.29c0.14,0.14,0.18,0.35,0.1,0.54C63.88,13.61,63.7,13.73,63.51,13.73z M51.85,2.15v9.37c0,0.68,0.55,1.23,1.23,1.23
			h9.25L51.85,2.15z"></path>
    </g>
    <g>
      <path d="M45.11,7.59H22.73c-0.27,0-0.49-0.22-0.49-0.49c0-0.27,0.22-0.49,0.49-0.49h22.38c0.27,0,0.49,0.22,0.49,0.49
			C45.6,7.37,45.38,7.59,45.11,7.59z"></path>
    </g>
    <g>
      <path d="M45.11,13.73h-8.37c-0.27,0-0.49-0.22-0.49-0.49c0-0.27,0.22-0.49,0.49-0.49h8.37c0.27,0,0.49,0.22,0.49,0.49
			C45.6,13.51,45.38,13.73,45.11,13.73z"></path>
    </g>
    <g>
      <path d="M57.43,19.82H41.66c-0.27,0-0.49-0.22-0.49-0.49c0-0.27,0.22-0.49,0.49-0.49h15.77c0.27,0,0.49,0.22,0.49,0.49
			C57.92,19.6,57.7,19.82,57.43,19.82z"></path>
    </g>
    <g>
      <path d="M57.43,25.92H45.11c-0.27,0-0.49-0.22-0.49-0.49c0-0.27,0.22-0.49,0.49-0.49h12.33c0.27,0,0.49,0.22,0.49,0.49
			C57.92,25.7,57.7,25.92,57.43,25.92z"></path>
    </g>
    <g>
      <path d="M57.43,32.01H45.11c-0.27,0-0.49-0.22-0.49-0.49c0-0.27,0.22-0.49,0.49-0.49h12.33c0.27,0,0.49,0.22,0.49,0.49
			C57.92,31.79,57.7,32.01,57.43,32.01z"></path>
    </g>
    <g>
      <path d="M57.43,38.1H43.84c-0.27,0-0.49-0.22-0.49-0.49c0-0.27,0.22-0.49,0.49-0.49h13.59c0.27,0,0.49,0.22,0.49,0.49
			C57.92,37.88,57.7,38.1,57.43,38.1z"></path>
    </g>
    <g>
      <g>
        <path d="M29.79,63.54H3.2c-1.76,0-3.2-1.44-3.2-3.2V24.66c0-1.76,1.44-3.2,3.2-3.2h26.59c1.76,0,3.2,1.44,3.2,3.2v35.68
				C32.99,62.11,31.56,63.54,29.79,63.54z M3.2,22.45c-1.22,0-2.22,0.99-2.22,2.22v35.68c0,1.22,0.99,2.22,2.22,2.22h26.59
				c1.22,0,2.22-0.99,2.22-2.22V24.66c0-1.22-0.99-2.22-2.22-2.22H3.2z"></path>
      </g>
      <g>
        <g>
          <path d="M27.13,34.34H5.86c-0.86,0-1.57-0.7-1.57-1.57v-5.83c0-0.86,0.7-1.57,1.57-1.57h21.26c0.86,0,1.57,0.7,1.57,1.57v5.83
					C28.69,33.63,27.99,34.34,27.13,34.34z M5.86,26.36c-0.32,0-0.58,0.26-0.58,0.58v5.83c0,0.32,0.26,0.58,0.58,0.58h21.26
					c0.32,0,0.58-0.26,0.58-0.58v-5.83c0-0.32-0.26-0.58-0.58-0.58H5.86z"></path>
        </g>
      </g>
      <g>
        <path d="M9.35,42.79H5.81c-0.83,0-1.51-0.68-1.51-1.51v-2.74c0-0.83,0.68-1.51,1.51-1.51h3.55c0.83,0,1.51,0.68,1.51,1.51v2.74
				C10.86,42.11,10.19,42.79,9.35,42.79z M5.81,38.02c-0.29,0-0.52,0.23-0.52,0.52v2.74c0,0.29,0.23,0.52,0.52,0.52h3.55
				c0.29,0,0.52-0.23,0.52-0.52v-2.74c0-0.29-0.23-0.52-0.52-0.52H5.81z"></path>
      </g>
      <g>
        <path d="M18.27,42.79h-3.55c-0.83,0-1.51-0.68-1.51-1.51v-2.74c0-0.83,0.68-1.51,1.51-1.51h3.55c0.83,0,1.51,0.68,1.51,1.51v2.74
				C19.78,42.11,19.1,42.79,18.27,42.79z M14.72,38.02c-0.29,0-0.52,0.23-0.52,0.52v2.74c0,0.29,0.23,0.52,0.52,0.52h3.55
				c0.29,0,0.52-0.23,0.52-0.52v-2.74c0-0.29-0.23-0.52-0.52-0.52H14.72z"></path>
      </g>
      <g>
        <path d="M27.19,42.79h-3.55c-0.83,0-1.51-0.68-1.51-1.51v-2.74c0-0.83,0.68-1.51,1.51-1.51h3.55c0.83,0,1.51,0.68,1.51,1.51v2.74
				C28.69,42.11,28.02,42.79,27.19,42.79z M23.64,38.02c-0.29,0-0.52,0.23-0.52,0.52v2.74c0,0.29,0.23,0.52,0.52,0.52h3.55
				c0.29,0,0.52-0.23,0.52-0.52v-2.74c0-0.29-0.23-0.52-0.52-0.52H23.64z"></path>
      </g>
      <g>
        <path d="M9.35,51.24H5.81c-0.83,0-1.51-0.68-1.51-1.51v-2.74c0-0.83,0.68-1.51,1.51-1.51h3.55c0.83,0,1.51,0.68,1.51,1.51v2.74
				C10.86,50.57,10.19,51.24,9.35,51.24z M5.81,46.47c-0.29,0-0.52,0.23-0.52,0.52v2.74c0,0.29,0.23,0.52,0.52,0.52h3.55
				c0.29,0,0.52-0.23,0.52-0.52v-2.74c0-0.29-0.23-0.52-0.52-0.52H5.81z"></path>
      </g>
      <g>
        <path d="M18.27,51.24h-3.55c-0.83,0-1.51-0.68-1.51-1.51v-2.74c0-0.83,0.68-1.51,1.51-1.51h3.55c0.83,0,1.51,0.68,1.51,1.51v2.74
				C19.78,50.57,19.1,51.24,18.27,51.24z M14.72,46.47c-0.29,0-0.52,0.23-0.52,0.52v2.74c0,0.29,0.23,0.52,0.52,0.52h3.55
				c0.29,0,0.52-0.23,0.52-0.52v-2.74c0-0.29-0.23-0.52-0.52-0.52H14.72z"></path>
      </g>
      <g>
        <path d="M27.19,51.24h-3.55c-0.83,0-1.51-0.68-1.51-1.51v-2.74c0-0.83,0.68-1.51,1.51-1.51h3.55c0.83,0,1.51,0.68,1.51,1.51v2.74
				C28.69,50.57,28.02,51.24,27.19,51.24z M23.64,46.47c-0.29,0-0.52,0.23-0.52,0.52v2.74c0,0.29,0.23,0.52,0.52,0.52h3.55
				c0.29,0,0.52-0.23,0.52-0.52v-2.74c0-0.29-0.23-0.52-0.52-0.52H23.64z"></path>
      </g>
      <g>
        <path d="M9.35,59.7H5.81c-0.83,0-1.51-0.68-1.51-1.51v-2.74c0-0.83,0.68-1.51,1.51-1.51h3.55c0.83,0,1.51,0.68,1.51,1.51v2.74
				C10.86,59.02,10.19,59.7,9.35,59.7z M5.81,54.92c-0.29,0-0.52,0.23-0.52,0.52v2.74c0,0.29,0.23,0.52,0.52,0.52h3.55
				c0.29,0,0.52-0.23,0.52-0.52v-2.74c0-0.29-0.23-0.52-0.52-0.52H5.81z"></path>
      </g>
      <g>
        <path d="M18.27,59.7h-3.55c-0.83,0-1.51-0.68-1.51-1.51v-2.74c0-0.83,0.68-1.51,1.51-1.51h3.55c0.83,0,1.51,0.68,1.51,1.51v2.74
				C19.78,59.02,19.1,59.7,18.27,59.7z M14.72,54.92c-0.29,0-0.52,0.23-0.52,0.52v2.74c0,0.29,0.23,0.52,0.52,0.52h3.55
				c0.29,0,0.52-0.23,0.52-0.52v-2.74c0-0.29-0.23-0.52-0.52-0.52H14.72z"></path>
      </g>
      <g>
        <path d="M27.19,59.7h-3.55c-0.83,0-1.51-0.68-1.51-1.51v-2.74c0-0.83,0.68-1.51,1.51-1.51h3.55c0.83,0,1.51,0.68,1.51,1.51v2.74
				C28.69,59.02,28.02,59.7,27.19,59.7z M23.64,54.92c-0.29,0-0.52,0.23-0.52,0.52v2.74c0,0.29,0.23,0.52,0.52,0.52h3.55
				c0.29,0,0.52-0.23,0.52-0.52v-2.74c0-0.29-0.23-0.52-0.52-0.52H23.64z"></path>
      </g>
    </g>
    <g>
      <g>
        <path d="M49.74,56.6c-4.02,0-7.29-3.27-7.29-7.29s3.27-7.29,7.29-7.29s7.29,3.27,7.29,7.29S53.76,56.6,49.74,56.6z M49.74,43
				c-3.48,0-6.31,2.83-6.31,6.31c0,3.48,2.83,6.31,6.31,6.31c3.48,0,6.31-2.83,6.31-6.31C56.05,45.83,53.22,43,49.74,43z"></path>
      </g>
      <g>
        <g>
          <g>
            <path d="M49.74,49.8c-1.2,0-2.18-0.98-2.18-2.18c0-1.2,0.98-2.18,2.18-2.18c1.2,0,2.18,0.98,2.18,2.18
						c0,0.27-0.22,0.49-0.49,0.49c-0.27,0-0.49-0.22-0.49-0.49c0-0.66-0.54-1.19-1.19-1.19c-0.66,0-1.19,0.54-1.19,1.19
						c0,0.66,0.54,1.19,1.19,1.19c0.27,0,0.49,0.22,0.49,0.49C50.23,49.58,50.01,49.8,49.74,49.8z"></path>
          </g>
          <g>
            <path d="M49.74,53.17c-1.2,0-2.18-0.98-2.18-2.18c0-0.27,0.22-0.49,0.49-0.49c0.27,0,0.49,0.22,0.49,0.49
						c0,0.66,0.54,1.19,1.19,1.19c0.66,0,1.19-0.54,1.19-1.19c0-0.66-0.54-1.19-1.19-1.19c-0.27,0-0.49-0.22-0.49-0.49
						c0-0.27,0.22-0.49,0.49-0.49c1.2,0,2.18,0.98,2.18,2.18S50.94,53.17,49.74,53.17z"></path>
          </g>
        </g>
        <g>
          <path d="M49.74,46.43c-0.27,0-0.49-0.22-0.49-0.49v-1c0-0.27,0.22-0.49,0.49-0.49c0.27,0,0.49,0.22,0.49,0.49v1
					C50.23,46.21,50.01,46.43,49.74,46.43z"></path>
        </g>
        <g>
          <path d="M49.74,54.17c-0.27,0-0.49-0.22-0.49-0.49v-1c0-0.27,0.22-0.49,0.49-0.49c0.27,0,0.49,0.22,0.49,0.49v1
					C50.23,53.95,50.01,54.17,49.74,54.17z"></path>
        </g>
      </g>
    </g>
  </g>
</svg>
