<svg viewBox="0 0 48 48" xml:space="preserve" xmlns="http://www.w3.org/2000/svg"><g fill="#111827" class="fill-241f20"><path d="M45.572.083H2.428A2.395 2.395 0 0 0 .031 2.479v28.659a2.396 2.396 0 0 0 2.397 2.397h19.074v7.293l-7.24 7.088h19.475l-7.24-7.088v-7.293h19.075a2.395 2.395 0 0 0 2.396-2.397V2.479A2.394 2.394 0 0 0 45.572.083zm-2.397 26.313a2.395 2.395 0 0 1-2.396 2.397H7.222a2.396 2.396 0 0 1-2.396-2.397V7.222a2.396 2.396 0 0 1 2.396-2.396h33.557a2.395 2.395 0 0 1 2.396 2.396v19.174z"></path><path d="m33.756 10.817-8.429 8.431-5.58-5.577-3.573 3.574.024.024-9.13 9.127h7.144l5.559-5.556 5.561 5.556 3.574-3.571-.01-.003 8.409-8.407 1.778 1.805 1.85-8.921-9.022 1.65z"></path></g></svg>